<?xml version="1.0" encoding="utf-8"?>
<!-- Generator: Adobe Illustrator 16.0.0, SVG Export Plug-In . SVG Version: 6.00 Build 0)  -->
<!DOCTYPE svg PUBLIC "-//W3C//DTD SVG 1.1//EN" "http://www.w3.org/Graphics/SVG/1.1/DTD/svg11.dtd">
<svg version="1.1" id="Calque_1" xmlns="http://www.w3.org/2000/svg" xmlns:xlink="http://www.w3.org/1999/xlink" x="0px" y="0px"
	 width="34.417px" height="25px" viewBox="16.583 20.333 34.417 25" enable-background="new 16.583 20.333 34.417 25"
	 xml:space="preserve">
<path fill="#FFFFFF" d="M49.359,34.279H21.73l8.055,8.056c0.5,0.501,0.5,1.31,0,1.81c-0.25,0.25-0.578,0.375-0.905,0.375
	s-0.655-0.125-0.905-0.375l-10.24-10.24c-0.118-0.117-0.211-0.26-0.276-0.416c-0.129-0.313-0.129-0.665,0-0.977
	c0.065-0.157,0.159-0.299,0.276-0.417l10.24-10.24c0.5-0.5,1.31-0.5,1.81,0s0.5,1.31,0,1.81L21.73,31.72h27.629
	c0.709,0,1.281,0.573,1.281,1.28C50.641,33.707,50.068,34.279,49.359,34.279z"/>
</svg>
