<svg width="495" height="534" viewBox="0 0 495 534" fill="none" xmlns="http://www.w3.org/2000/svg">
<path d="M68.4888 -61.1798C81.8349 -48.4326 101.432 -35.8781 130.22 -25.1309C215.139 6.66485 296.444 -8.04626 387.65 22.6411C500.706 60.6899 433 102.594 538.564 134.956C639.671 165.957 742.717 140.065 849.257 171.837C908.459 189.488 936.56 215.355 950.436 238.561" stroke="black" stroke-opacity="0.15" stroke-width="2.26" stroke-linecap="round" stroke-linejoin="round" stroke-dasharray="28.03 22.19 1.17 15.18 1.17 15.18"/>
<path d="M55.2512 -36.9384C67.0555 -23.2273 84.4126 -9.76917 109.876 1.8214C185.026 36.0028 257.008 20.1952 337.686 53.1958C437.734 94.1605 377.821 139.161 471.231 173.969C560.703 207.307 651.909 179.463 746.186 213.621C798.595 232.585 823.456 260.417 835.754 285.369" stroke="black" stroke-opacity="0.15" stroke-width="2.21" stroke-linecap="round" stroke-linejoin="round" stroke-dasharray="27.35 21.65 1.14 14.81 1.14 14.81"/>
<path d="M43.5433 -10.8656C53.9985 3.86965 69.344 18.3518 91.8806 30.8099C158.382 67.5696 222.077 50.5693 293.493 86.0519C382.025 130.053 329.002 178.487 411.68 215.91C490.865 251.754 571.555 221.813 654.992 258.549C701.354 278.959 723.361 308.863 734.262 335.659" stroke="black" stroke-opacity="0.15" stroke-width="2.15" stroke-linecap="round" stroke-linejoin="round" stroke-dasharray="26.67 21.12 1.11 14.45 1.11 14.45"/>
<path d="M20.6454 -11.6728C22.9692 -3.99477 25.964 3.46385 29.595 10.6168" stroke="black" stroke-opacity="0.15" stroke-width="2.1" stroke-linecap="round" stroke-linejoin="round" stroke-dasharray="1.08 14.09 1.08 14.09"/>
<path d="M33.1724 17.1711C42.4231 33.0147 56.0582 48.5933 75.9568 61.9791C134.81 101.498 191.181 83.2205 254.37 121.378C332.663 168.68 285.796 220.777 358.958 261.019C429.037 299.574 500.441 267.369 574.29 306.875C615.315 328.828 634.792 360.973 644.441 389.829" stroke="black" stroke-opacity="0.15" stroke-width="2.1" stroke-linecap="round" stroke-linejoin="round" stroke-dasharray="26.02 20.6 1.08 14.09 1.08 14.09"/>
<path d="M12.9124 16.3036C14.9452 24.4806 17.5947 32.4916 20.8381 40.2679" stroke="black" stroke-opacity="0.15" stroke-width="2.05" stroke-linecap="round" stroke-linejoin="round" stroke-dasharray="1.06 13.75 1.06 13.75"/>
<path d="M24.006 47.3162C32.894 65.9916 45.826 82.4542 61.864 95.5099C113.947 138.005 163.826 118.402 219.752 159.366C289.084 210.235 247.564 266.248 312.307 309.514C374.316 350.96 437.577 316.345 502.862 358.816C539.166 382.419 556.402 416.986 564.943 447.974" stroke="black" stroke-opacity="0.15" stroke-width="2.05" stroke-linecap="round" stroke-linejoin="round" stroke-dasharray="25.38 20.09 1.06 13.75 1.06 13.75"/>
<path d="M1.20451 8.65286C1.48155 13.2313 1.87904 18.0506 2.40903 23.111" stroke="black" stroke-opacity="0.15" stroke-width="2" stroke-linecap="round" stroke-linejoin="round"/>
<path d="M6.02258 46.3885C7.80359 55.1207 10.1452 63.7291 13.0329 72.1601" stroke="black" stroke-opacity="0.15" stroke-width="2" stroke-linecap="round" stroke-linejoin="round" stroke-dasharray="1.03 13.41 1.03 13.41"/>
<path d="M15.8876 79.7385C23.3305 99.1499 34.7393 116.795 49.3852 131.547C95.47 177.246 139.616 156.113 189.109 200.223C250.467 254.923 213.717 315.153 271.016 361.672C325.894 406.251 381.832 369.021 439.649 414.685C471.785 440.059 487.034 477.24 494.587 510.602" stroke="black" stroke-opacity="0.15" stroke-width="2" stroke-linecap="round" stroke-linejoin="round" stroke-dasharray="24.76 19.6 1.03 13.41 1.03 13.41"/>
</svg>
