<?xml version="1.0" encoding="utf-8"?>
<!-- Generator: Adobe Illustrator 16.0.0, SVG Export Plug-In . SVG Version: 6.00 Build 0)  -->
<!DOCTYPE svg PUBLIC "-//W3C//DTD SVG 1.1//EN" "http://www.w3.org/Graphics/SVG/1.1/DTD/svg11.dtd">
<svg version="1.1" id="Calque_1" xmlns="http://www.w3.org/2000/svg" xmlns:xlink="http://www.w3.org/1999/xlink" x="0px" y="0px"
	 width="16px" height="16px" viewBox="0 0 16 16" enable-background="new 0 0 16 16" xml:space="preserve">
<circle fill="none" stroke="#000000" stroke-miterlimit="10" cx="8.463" cy="7.94" r="6.463"/>
<path d="M5.309,8.103l2.928,2.928c0.08,0.08,0.19,0.104,0.293,0.085c0.103,0.019,0.213-0.005,0.293-0.085l2.929-2.928
	c0.128-0.128,0.128-0.335,0-0.463c-0.129-0.128-0.336-0.128-0.463,0l-2.438,2.438c0.004-0.028,0.007-0.058,0.007-0.089V5.194
	c0-0.241-0.127-0.436-0.327-0.436c-0.201,0-0.328,0.195-0.328,0.436v4.794c0,0.031,0.002,0.061,0.006,0.089L5.77,7.639
	c-0.127-0.128-0.334-0.128-0.462,0C5.18,7.768,5.181,7.974,5.309,8.103z"/>
</svg>
