<svg width="32" height="32" viewBox="0 0 32 32" fill="none" xmlns="http://www.w3.org/2000/svg">
<g clip-path="url(#clip0)">
<path d="M27.3412 32H1.32598C0.815605 32 0.401855 31.5862 0.401855 31.0759V16.0572C0.401855 15.5469 0.815605 15.1331 1.32598 15.1331C1.83636 15.1331 2.25011 15.5469 2.25011 16.0572V30.1517H26.417V28.093C26.417 27.5827 26.8308 27.1689 27.3412 27.1689C27.8515 27.1689 28.2653 27.5827 28.2653 28.093V31.0758C28.2654 31.5862 27.8516 32 27.3412 32Z" fill="#C30F08"/>
<path d="M1.32568 11.0682V10.7687L11.0042 0.924072V11.0682H1.32568Z" fill="#F4B2B0"/>
<path d="M30.6749 13.7139H12.2827V23.9459H30.6749V13.7139Z" fill="#F4B2B0"/>
<path d="M30.6743 12.7896H28.2649V0.924125C28.2649 0.413813 27.8512 0 27.3408 0H11.0041C10.9999 0 10.9958 0.0005625 10.9917 0.000625C10.9692 0.000875 10.9469 0.002 10.9245 0.0039375C10.917 0.0045625 10.9094 0.00525 10.9019 0.0060625C10.8763 0.0089375 10.8509 0.012625 10.8257 0.017625C10.8237 0.018 10.8219 0.0181875 10.8199 0.0185625C10.7929 0.024125 10.7663 0.0310625 10.7399 0.038875C10.733 0.0409375 10.7262 0.0433125 10.7193 0.0455C10.6992 0.0520625 10.6792 0.05925 10.6594 0.0671875C10.6527 0.0699375 10.6459 0.0725625 10.6392 0.0754375C10.5887 0.0970625 10.5401 0.123313 10.4938 0.154C10.4874 0.158187 10.4813 0.162687 10.4751 0.166938C10.4579 0.178875 10.4412 0.191437 10.4249 0.204625C10.4187 0.209625 10.4125 0.214437 10.4065 0.219625C10.3853 0.237562 10.3646 0.25625 10.3449 0.27625L0.666555 10.1209C0.64493 10.1429 0.624617 10.1659 0.605492 10.1897C0.594117 10.2038 0.584117 10.2186 0.57368 10.2332C0.56668 10.243 0.559055 10.2525 0.55243 10.2626C0.540305 10.2809 0.52968 10.3 0.519055 10.319C0.51518 10.326 0.510742 10.3327 0.507055 10.3398C0.49668 10.3595 0.487805 10.3797 0.478992 10.4C0.475867 10.4071 0.472242 10.4141 0.469305 10.4213C0.46143 10.4408 0.454867 10.4605 0.448305 10.4804C0.44543 10.4891 0.442117 10.4975 0.439555 10.5062C0.434117 10.5246 0.430055 10.5431 0.425805 10.5618C0.423305 10.5725 0.420367 10.583 0.418242 10.5939C0.41493 10.6111 0.412992 10.6283 0.41068 10.6455C0.408992 10.6581 0.406805 10.6704 0.405617 10.683C0.404055 10.6997 0.403742 10.7164 0.403117 10.7331C0.40268 10.745 0.401367 10.7568 0.401367 10.7688V11.0682C0.401367 11.5786 0.815117 11.9924 1.32549 11.9924H11.0039C11.5143 11.9924 11.9281 11.5786 11.9281 11.0682V1.84825H26.4166V12.7896H12.2822C11.7718 12.7896 11.3581 13.2034 11.3581 13.7137V23.9453C11.3581 24.4556 11.7718 24.8694 12.2822 24.8694H30.6742C31.1846 24.8694 31.5983 24.4556 31.5983 23.9453V13.7138C31.5984 13.2035 31.1846 12.7896 30.6743 12.7896ZM3.23556 10.1442L6.23168 7.09675L10.0799 3.18237V10.1442H3.23556ZM29.7501 23.0212H13.2064V14.6379H29.7501V23.0212Z" fill="#C30F08"/>
<path d="M15.38 16.2959C15.38 16.0959 15.5628 15.9199 15.8409 15.9199H17.4861C18.5351 15.9199 19.3616 16.4158 19.3616 17.7595V17.7995C19.3616 19.1432 18.5033 19.6551 17.4066 19.6551H16.6198V21.3826C16.6198 21.6386 16.3098 21.7665 15.9998 21.7665C15.6898 21.7665 15.3799 21.6385 15.3799 21.3826L15.38 16.2959ZM16.6198 17.0076V18.6952H17.4066C17.8516 18.6952 18.1218 18.4392 18.1218 17.8954V17.8076C18.1218 17.2636 17.8516 17.0077 17.4066 17.0077H16.6198V17.0076Z" fill="#C30F08"/>
<path d="M21.849 15.9199C22.9457 15.9199 23.8041 16.4318 23.8041 17.8075V19.8791C23.8041 21.2548 22.9458 21.7667 21.849 21.7667H20.4423C20.1164 21.7667 19.9019 21.5907 19.9019 21.3908V16.2959C19.9019 16.0959 20.1164 15.92 20.4423 15.92H21.849V15.9199ZM21.1417 17.0076V20.6788H21.849C22.294 20.6788 22.5642 20.4228 22.5642 19.879V17.8075C22.5642 17.2635 22.294 17.0077 21.849 17.0077H21.1417V17.0076Z" fill="#C30F08"/>
<path d="M24.5909 16.3038C24.5909 16.0478 24.8611 15.9199 25.1313 15.9199H27.8891C28.1514 15.9199 28.2627 16.1999 28.2627 16.4558C28.2627 16.7517 28.1276 17.0077 27.8891 17.0077H25.8307V18.3594H27.0308C27.2692 18.3594 27.4043 18.5914 27.4043 18.8473C27.4043 19.0633 27.2931 19.3192 27.0308 19.3192H25.8307V21.3827C25.8307 21.6387 25.5208 21.7665 25.2108 21.7665C24.9008 21.7665 24.5908 21.6385 24.5908 21.3827V16.3038H24.5909Z" fill="#C30F08"/>
</g>
<defs>
<clipPath id="clip0">
<rect width="32" height="32" fill="white"/>
</clipPath>
</defs>
</svg>
