<svg width="32" height="32" viewBox="0 0 32 32" fill="none" xmlns="http://www.w3.org/2000/svg">
<path d="M27.4096 31.9999H1.23639C0.722891 31.9999 0.306641 31.5837 0.306641 31.0702V16.0572C0.306641 15.5437 0.722891 15.1274 1.23639 15.1274C1.74989 15.1274 2.16614 15.5437 2.16614 16.0572V30.1404H26.48V28.0884C26.48 27.5749 26.8963 27.1586 27.4097 27.1586C27.9231 27.1586 28.3395 27.5749 28.3395 28.0884V31.0702C28.3394 31.5837 27.9231 31.9999 27.4096 31.9999Z" fill="#C30F08"/>
<path d="M1.23682 11.0701V10.7707L10.9741 0.929688V11.0701H1.23682Z" fill="#F4B2B0"/>
<path d="M30.7636 13.7146H12.2598V23.9427H30.7636V13.7146Z" fill="#F4B2B0"/>
<path d="M30.7637 12.7849H28.3398V0.92975C28.3398 0.41625 27.9235 0 27.4101 0H10.9741C10.9626 0 10.9514 0.0013125 10.9399 0.0016875C10.9295 0.0020625 10.9192 0.0025 10.9088 0.00325C10.8686 0.006125 10.8287 0.010625 10.7895 0.0185625C10.7887 0.01875 10.7878 0.019 10.7869 0.0191875C10.7483 0.0270625 10.7106 0.03825 10.6734 0.051C10.6638 0.054375 10.6541 0.0578125 10.6445 0.0614375C10.6079 0.0753125 10.5721 0.09075 10.5376 0.109063C10.5364 0.109687 10.5349 0.110188 10.5338 0.110937C10.4983 0.13 10.4645 0.152187 10.4316 0.175938C10.4231 0.182063 10.4148 0.188188 10.4066 0.194625C10.3739 0.21975 10.3423 0.246312 10.313 0.275875L0.575879 10.1167C0.554004 10.1388 0.533504 10.1618 0.514129 10.1858C0.501191 10.2016 0.489879 10.2183 0.478129 10.2347C0.472379 10.2429 0.465941 10.2507 0.460441 10.259C0.447066 10.2793 0.435129 10.3003 0.423441 10.3214C0.420566 10.3266 0.417191 10.3315 0.414504 10.3367C0.403066 10.3584 0.393129 10.3805 0.383566 10.4027C0.381254 10.4081 0.378441 10.4132 0.376316 10.4187C0.367566 10.44 0.360316 10.4618 0.353254 10.4836C0.351004 10.4906 0.348254 10.4973 0.346191 10.5042C0.340254 10.5243 0.335566 10.5446 0.331066 10.5649C0.329004 10.5741 0.326316 10.5832 0.324441 10.5925C0.320816 10.6112 0.318504 10.6302 0.316066 10.6492C0.314566 10.6602 0.312504 10.6711 0.311441 10.6823C0.309691 10.7013 0.309316 10.7203 0.308629 10.7393C0.308254 10.7498 0.307129 10.7601 0.307129 10.7704V11.0699C0.307129 11.5834 0.723379 11.9997 1.23688 11.9997H10.9741C11.4876 11.9997 11.9039 11.5834 11.9039 11.0699V1.8595H26.4804V12.7849H12.26C11.7465 12.7849 11.3303 13.2012 11.3303 13.7147V23.9424C11.3303 24.4559 11.7465 24.8722 12.26 24.8722H30.7637C31.2771 24.8722 31.6934 24.4559 31.6934 23.9424V13.7147C31.6934 13.2012 31.2771 12.7849 30.7637 12.7849ZM3.16844 10.1404L10.0443 3.19125V10.1404H3.16844ZM29.8339 23.0127H13.1898V14.6444H29.834V23.0127H29.8339Z" fill="#C30F08"/>
<path d="M15.9811 19.617L14.9765 21.3234C14.9283 21.3991 14.832 21.4335 14.722 21.4335C14.4261 21.4335 14.0063 21.1995 14.0063 20.9037C14.0063 20.8418 14.027 20.7799 14.0683 20.7111L15.2587 18.874L14.1165 17.0439C14.0683 16.9682 14.0477 16.8994 14.0477 16.8305C14.0477 16.5416 14.4399 16.3213 14.7427 16.3213C14.8941 16.3213 14.9973 16.3764 15.0661 16.5002L15.9812 18.0964L16.8963 16.5002C16.9651 16.3764 17.0684 16.3213 17.2197 16.3213C17.5225 16.3213 17.9147 16.5415 17.9147 16.8305C17.9147 16.8994 17.894 16.9682 17.8459 17.0439L16.7037 18.874L17.8941 20.7111C17.9353 20.7799 17.956 20.8419 17.956 20.9037C17.956 21.1996 17.5363 21.4335 17.2405 21.4335C17.1304 21.4335 17.0272 21.3991 16.9859 21.3234L15.9811 19.617Z" fill="#C30F08"/>
<path d="M18.8498 21.3922C18.6158 21.3922 18.3818 21.2822 18.3818 21.062V16.6859C18.3818 16.4589 18.6503 16.3625 18.9185 16.3625C19.1869 16.3625 19.4551 16.4589 19.4551 16.6859V20.4565H21.0238C21.2303 20.4565 21.3335 20.6905 21.3335 20.9244C21.3335 21.1584 21.2303 21.3923 21.0238 21.3923H18.8497V21.3922H18.8498Z" fill="#C30F08"/>
<path d="M23.8309 20.0437C23.8309 19.2111 21.6498 19.3555 21.6498 17.7455C21.6498 16.7134 22.5511 16.3213 23.4111 16.3213C23.7759 16.3213 24.7804 16.3901 24.7804 16.9269C24.7804 17.1126 24.6566 17.491 24.3538 17.491C24.1061 17.491 23.9753 17.2296 23.4111 17.2296C22.9226 17.2296 22.7231 17.4291 22.7231 17.6424C22.7231 18.3305 24.9043 18.1998 24.9043 19.9337C24.9043 20.9245 24.1818 21.4612 23.1841 21.4612C22.2828 21.4612 21.5259 21.0209 21.5259 20.5667C21.5259 20.3327 21.7324 19.9887 21.9938 19.9887C22.3172 19.9887 22.5235 20.4979 23.1634 20.4979C23.4801 20.4979 23.8309 20.374 23.8309 20.0437Z" fill="#C30F08"/>
<path d="M27.0924 19.617L26.0878 21.3234C26.0396 21.3991 25.9432 21.4335 25.8332 21.4335C25.5373 21.4335 25.1177 21.1995 25.1177 20.9037C25.1177 20.8418 25.1383 20.7799 25.1796 20.7111L26.37 18.874L25.2278 17.0439C25.1796 16.9682 25.159 16.8994 25.159 16.8305C25.159 16.5416 25.5512 16.3213 25.854 16.3213C26.0054 16.3213 26.1086 16.3764 26.1774 16.5002L27.0926 18.0964L28.0077 16.5002C28.0764 16.3764 28.1797 16.3213 28.3311 16.3213C28.6339 16.3213 29.0261 16.5415 29.0261 16.8305C29.0261 16.8994 29.0054 16.9682 28.9572 17.0439L27.8151 18.874L29.0055 20.7111C29.0467 20.7799 29.0674 20.8419 29.0674 20.9037C29.0674 21.1996 28.6476 21.4335 28.3519 21.4335C28.2417 21.4335 28.1385 21.3991 28.0973 21.3234L27.0924 19.617Z" fill="#C30F08"/>
</svg>
