<svg width="28" height="32" viewBox="0 0 28 32" fill="none" xmlns="http://www.w3.org/2000/svg">
<g filter="url(#filter0_d)">
<path fill-rule="evenodd" clip-rule="evenodd" d="M14 30.6668C14 30.6668 26 22.6668 26 13.3335C26 10.1509 24.7357 7.09865 22.4853 4.84821C20.2348 2.59778 17.1826 1.3335 14 1.3335C10.8174 1.3335 7.76515 2.59778 5.51472 4.84821C3.26428 7.09865 2 10.1509 2 13.3335C2 22.6668 14 30.6668 14 30.6668ZM11 13.3335C11 11.6766 12.3431 10.3335 14 10.3335C15.6569 10.3335 17 11.6766 17 13.3335C17 14.9904 15.6569 16.3335 14 16.3335C12.3431 16.3335 11 14.9904 11 13.3335ZM14 8.3335C11.2386 8.3335 9 10.5721 9 13.3335C9 16.0949 11.2386 18.3335 14 18.3335C16.7614 18.3335 19 16.0949 19 13.3335C19 10.5721 16.7614 8.3335 14 8.3335Z" fill="#C30F08"/>
</g>
<defs>
<filter id="filter0_d" x="0" y="-0.666504" width="28" height="33.3333" filterUnits="userSpaceOnUse" color-interpolation-filters="sRGB">
<feFlood flood-opacity="0" result="BackgroundImageFix"/>
<feColorMatrix in="SourceAlpha" type="matrix" values="0 0 0 0 0 0 0 0 0 0 0 0 0 0 0 0 0 0 127 0"/>
<feOffset/>
<feGaussianBlur stdDeviation="1"/>
<feColorMatrix type="matrix" values="0 0 0 0 0 0 0 0 0 0 0 0 0 0 0 0 0 0 0.35 0"/>
<feBlend mode="normal" in2="BackgroundImageFix" result="effect1_dropShadow"/>
<feBlend mode="normal" in="SourceGraphic" in2="effect1_dropShadow" result="shape"/>
</filter>
</defs>
</svg>
