<?xml version="1.0" encoding="utf-8"?>
<!-- Generator: Adobe Illustrator 16.0.0, SVG Export Plug-In . SVG Version: 6.00 Build 0)  -->
<!DOCTYPE svg PUBLIC "-//W3C//DTD SVG 1.1//EN" "http://www.w3.org/Graphics/SVG/1.1/DTD/svg11.dtd">
<svg version="1.1" id="Calque_1" xmlns="http://www.w3.org/2000/svg" xmlns:xlink="http://www.w3.org/1999/xlink" x="0px" y="0px"
	 width="16px" height="16px" viewBox="0 0 16 16" enable-background="new 0 0 16 16" xml:space="preserve">
<path fill="none" stroke="#000000" stroke-linecap="round" stroke-linejoin="round" d="M8,10c1.104,0,2-0.896,2-2S9.104,6,8,6
	S6,6.896,6,8S6.896,10,8,10z"/>
<path fill="none" stroke="#000000" stroke-linecap="round" stroke-linejoin="round" d="M12.934,10
	c-0.089,0.201-0.115,0.424-0.076,0.641c0.039,0.216,0.143,0.416,0.296,0.572l0.04,0.041c0.124,0.123,0.223,0.271,0.289,0.432
	c0.067,0.162,0.102,0.336,0.102,0.512c0,0.175-0.034,0.348-0.102,0.51c-0.066,0.162-0.165,0.309-0.289,0.434
	c-0.123,0.123-0.271,0.222-0.433,0.289c-0.162,0.066-0.335,0.102-0.511,0.102s-0.349-0.035-0.511-0.102
	c-0.161-0.067-0.309-0.166-0.433-0.289l-0.04-0.041c-0.157-0.153-0.356-0.256-0.573-0.295c-0.216-0.04-0.439-0.014-0.641,0.075
	c-0.196,0.085-0.365,0.226-0.482,0.403c-0.119,0.18-0.183,0.389-0.184,0.604V14c0,0.354-0.141,0.693-0.391,0.943
	s-0.589,0.391-0.943,0.391c-0.354,0-0.692-0.141-0.943-0.391c-0.25-0.25-0.39-0.59-0.39-0.943v-0.061
	c-0.005-0.221-0.077-0.434-0.205-0.613S6.207,13.01,6,12.934c-0.201-0.089-0.424-0.115-0.64-0.076S4.944,13,4.787,13.153l-0.04,0.04
	c-0.124,0.124-0.271,0.223-0.433,0.289c-0.162,0.067-0.335,0.102-0.511,0.102c-0.175,0-0.349-0.034-0.51-0.102
	c-0.162-0.066-0.309-0.165-0.433-0.289c-0.124-0.123-0.222-0.271-0.289-0.433c-0.067-0.162-0.102-0.335-0.102-0.511
	s0.034-0.349,0.102-0.511c0.067-0.161,0.166-0.309,0.289-0.433l0.04-0.04c0.154-0.157,0.257-0.356,0.296-0.573
	c0.039-0.216,0.013-0.439-0.076-0.641C3.036,9.856,2.896,9.688,2.716,9.57C2.538,9.451,2.328,9.388,2.113,9.387H2
	c-0.354,0-0.693-0.141-0.943-0.391s-0.39-0.589-0.39-0.943c0-0.354,0.14-0.692,0.39-0.943C1.307,6.86,1.646,6.72,2,6.72h0.06
	c0.221-0.005,0.435-0.077,0.614-0.205S2.991,6.207,3.067,6c0.088-0.201,0.115-0.424,0.076-0.64C3.104,5.144,3,4.944,2.847,4.787
	l-0.04-0.04C2.683,4.623,2.584,4.476,2.518,4.314C2.45,4.152,2.416,3.979,2.416,3.803c0-0.175,0.035-0.349,0.102-0.51
	C2.584,3.131,2.683,2.984,2.807,2.86c0.124-0.124,0.271-0.222,0.433-0.289C3.401,2.503,3.575,2.469,3.75,2.469
	s0.349,0.034,0.511,0.102C4.422,2.638,4.569,2.736,4.693,2.86l0.04,0.04C4.891,3.054,5.09,3.157,5.306,3.196
	C5.522,3.235,5.746,3.209,5.947,3.12H6c0.197-0.084,0.365-0.225,0.484-0.404c0.119-0.179,0.182-0.388,0.183-0.603V2
	c0-0.354,0.14-0.693,0.39-0.943S7.646,0.667,8,0.667s0.693,0.14,0.943,0.39S9.334,1.646,9.334,2v0.06
	c0,0.214,0.064,0.424,0.182,0.603C9.635,2.842,9.803,2.982,10,3.067c0.201,0.088,0.424,0.115,0.641,0.076
	C10.857,3.104,11.057,3,11.213,2.847l0.041-0.04c0.123-0.124,0.271-0.222,0.432-0.289c0.162-0.067,0.336-0.102,0.512-0.102
	c0.175,0,0.348,0.035,0.51,0.102c0.162,0.067,0.309,0.165,0.434,0.289c0.123,0.124,0.222,0.271,0.289,0.433
	c0.066,0.162,0.102,0.335,0.102,0.511s-0.035,0.349-0.102,0.511c-0.067,0.162-0.166,0.309-0.289,0.433L13.1,4.733
	c-0.153,0.157-0.256,0.356-0.295,0.573c-0.04,0.216-0.014,0.439,0.075,0.641V6c0.085,0.197,0.226,0.365,0.403,0.484
	c0.18,0.119,0.389,0.182,0.604,0.183H14c0.354,0,0.693,0.14,0.943,0.39S15.334,7.646,15.334,8s-0.141,0.693-0.391,0.943
	S14.354,9.334,14,9.334h-0.061c-0.214,0-0.424,0.064-0.603,0.182C13.158,9.635,13.018,9.803,12.934,10L12.934,10z"/>
</svg>
