<?xml version="1.0" encoding="utf-8"?>
<!-- Generator: Adobe Illustrator 16.0.0, SVG Export Plug-In . SVG Version: 6.00 Build 0)  -->
<!DOCTYPE svg PUBLIC "-//W3C//DTD SVG 1.1//EN" "http://www.w3.org/Graphics/SVG/1.1/DTD/svg11.dtd">
<svg version="1.1" id="Calque_1" xmlns="http://www.w3.org/2000/svg" xmlns:xlink="http://www.w3.org/1999/xlink" x="0px" y="0px"
	 width="16px" height="16px" viewBox="0 0 16 16" enable-background="new 0 0 16 16" xml:space="preserve">
<path fill="none" stroke="#000000" stroke-linecap="round" stroke-linejoin="round" d="M10.666,14v-1.334
	c0-0.707-0.28-1.385-0.78-1.885S8.707,10,8,10H3.333c-0.708,0-1.386,0.281-1.886,0.781s-0.781,1.178-0.781,1.885V14"/>
<path fill="none" stroke="#000000" stroke-linecap="round" stroke-linejoin="round" d="M5.667,7.333
	c1.473,0,2.667-1.194,2.667-2.667C8.333,3.194,7.14,2,5.667,2C4.194,2,3,3.194,3,4.667C3,6.14,4.194,7.333,5.667,7.333z"/>
<path fill="none" stroke="#000000" stroke-linecap="round" stroke-linejoin="round" d="M12.334,5.333v4"/>
<path fill="none" stroke="#000000" stroke-linecap="round" stroke-linejoin="round" d="M14.334,7.333h-4"/>
</svg>
